<?xml version="1.0" encoding="utf-8" standalone="no"?>
<!DOCTYPE svg PUBLIC "-//W3C//DTD SVG 1.1//EN" "http://www.w3.org/Graphics/SVG/1.1/DTD/svg11.dtd">
<svg version="1.1" width="288pt" height="288pt" viewBox="0 0 288 288" overflow="visible" xmlns="http://www.w3.org/2000/svg">
  <path d="M104.6958,118.167 C106.9453,119.6288 108.5734,121.9689 108.5928,125.5372 C108.6217,131.9037 104.2512,135.7317 98.9388,136.9125" stroke="#000000" stroke-width="0.24" fill="none" />
  <path d="M90.75062,106.6475 L103.9004,107.3704" stroke="#000000" stroke-width="0.24" fill="none" />
  <path d="M95.29368,125.4382 L83.97662,126.6145" stroke="#000000" stroke-width="0.24" fill="none" />
  <path d="M165.1834,141.8185 L180.9315,145.237" stroke="#000000" stroke-width="0.24" fill="none" />
  <path d="M154.7529,212.4732 L143.2156,205.3285" stroke="#000000" stroke-width="0.24" fill="none" />
  <path d="M197.2525,188.2973 L188.4075,188.3049" stroke="#000000" stroke-width="0.24" fill="none" />
  <path d="M143.7413,147.2661 L133.4709,147.8752" stroke="#000000" stroke-width="0.24" fill="none" />
  <path d="M143.7538,89.60666 C150.3519,92.096 154.0133,98.73016 153.881,109.1606 C153.7655,116.8068 151.8502,126.2098 144.0173,129.9029 L143.407,130.1615" stroke="#000000" stroke-width="0.24" fill="none" />
  <path d="M86.43348,101.891 L97.60458,102.504 C97.96789,93.64954 102.0601,88.20651 109.0071,87.57765 L110.7207,87.51366 C116.0093,87.60297 121.1479,91.30622 121.1447,97.43528 C121.1495,105.5959 113.9908,107.3755 108.8064,107.4312 L103.9004,107.3704 L103.9793,118.2072 L110.2875,117.8668 C115.7237,117.7536 123.2854,120.138 123.2638,128.2879 C123.2508,136.5242 116.7121,140.9737 109.6454,141.345 C101.081,141.79 95.40056,135.578 95.29368,125.4382 L82.97646,122.8868 L72.672,123.9127" stroke="#000000" stroke-width="0.24" fill="none" />
  <path d="M100.0488,150.6371 C103.0807,151.4453 106.4233,151.72 109.9775,151.4996 C119.6318,150.8894 127.8621,147.2471 131.8223,138.6805 C133.1718,135.7841 133.8976,132.7306 133.9185,128.6078 C133.9583,119.7856 129.8238,113.2877 122.627,111.9945 C128.6152,110.7521 131.7725,104.3342 131.8121,97.06731 C131.8683,83.76772 122.8286,76.9735 110.8646,76.60679 C108.7274,76.54575 106.6869,76.68418 104.7621,77.02394 C93.8279,78.90945 86.7135,87.48292 86.43348,101.891 L74.80747,101.7169 C75.00645,88.7948 81.42779,81.10674 91.39439,79.38334 L104.7621,77.02394" stroke="#000000" stroke-width="0.24" fill="none" />
  <path d="M154.3063,188.3014 C157.2465,185.7004 159.5782,181.879 160.8752,177.02 L188.4075,188.3049 C185.6789,198.4026 179.234,204.7378 171.8479,205.7776 C168.4755,206.2431 165.5863,205.694 163.178,204.3713 C156.8709,200.929 153.8835,192.1073 154.0139,182.924 C154.1342,169.8492 159.9104,155.6572 173.0964,154.7855 C174.7522,154.6673 176.2898,154.8099 177.7014,155.19 C183.2141,156.6801 186.8058,161.7601 188.0372,169.2129 L161.3008,160.6141" stroke="#000000" stroke-width="0.24" fill="none" />
  <path d="M121.2048,78.90188 L134.1961,77.02921 L133.8572,145.2461 L150.3009,144.3242 C156.2361,143.9933 162.2493,143.4676 166.8978,141.0257 C177.5507,135.4406 180.8699,123.3343 181.2171,110.233 C181.5341,95.66059 177.6466,82.67765 164.7302,78.83928 C161.726,77.91972 158.5193,77.73038 154.5257,77.61575 L134.1961,77.02921" stroke="#000000" stroke-width="0.24" fill="none" />
  <path d="M143.3496,135.2875 L143.776,87.09827 L155.0482,87.28439 C166.3189,87.49644 172.7112,95.42449 172.4187,110.0812 C172.2264,118.511 170.0901,128.8646 161.616,132.9677 C158.3164,134.5318 153.3145,134.8482 150.4911,134.9719 z" stroke="#000000" stroke-width="0.24" fill="none" />
  <path d="M188.0372,169.2129 L197.2045,167.5149 C195.9732,151.4623 187.1605,143.9191 173.1408,144.7081 C153.2914,145.7113 143.3977,162.6007 143.3304,183.9544 C143.09,205.0247 152.583,218.0476 171.4026,215.1279 C184.7903,213.0616 194.5385,204.3358 197.2525,188.2973 L168.8949,177.1344 L160.8752,177.02" stroke="#000000" stroke-width="0.24" fill="none" />
  <path d="M126.4248,145.7759 L133.4709,147.8752 L133.2056,203.0153 L99.57316,149.8857 L87.80556,150.5836 L88.87469,226.5973 L100.3616,224.886 L99.8454,168.4996 L133.0328,220.0188 L143.0962,218.5195 L143.7413,147.2661 L136.0023,145.1271" stroke="#000000" stroke-width="0.24" fill="none" />
  <path d="M99.57316,149.8857 L81.4678,142.7529 L71.19244,143.2638 L87.80556,150.5836" stroke="#000000" stroke-width="0.24" fill="none" />
  <path d="M81.19379,142.7665 C76.07393,139.2123 72.85308,133.0056 72.672,123.9127 L83.97662,126.6145 C84.12761,136.482 87.47056,143.2703 92.82307,147.2274" stroke="#000000" stroke-width="0.24" fill="none" />
  <path d="M102.3237,90.35963 C104.7456,91.86365 106.4611,94.38313 106.4819,97.70975 C106.5296,105.0618 99.97401,106.661 95.23489,106.7062 L90.75062,106.6475 L90.87366,116.3991 L103.9793,118.2072" stroke="#000000" stroke-width="0.24" fill="none" />
  <path d="M74.8075,101.717 L84.98257,102.2698 L97.60461,102.5041" stroke="#000000" stroke-width="0.24" fill="none" />
  <path d="M100.0092,186.397 L111.4903,203.8437 L133.0328,220.0188" stroke="#000000" stroke-width="0.24" fill="none" />
  <path d="M71.19244,143.2638 L72.55882,208.7298 L88.87469,226.5973" stroke="#000000" stroke-width="0.24" fill="none" />
  <path d="M128.5241,143.7484 L133.8572,145.2461" stroke="#000000" stroke-width="0.24" fill="none" />
  <path d="M111.3439,151.3931 L111.4184,168.5979" stroke="#000000" stroke-width="0.24" fill="none" />
</svg>