<?xml version="1.0" encoding="UTF-8" standalone="no"?>
<svg
   version="1.1"
   width="102.90453pt"
   height="122.36824pt"
   viewBox="0 0 102.90453 122.36824"
   overflow="visible"
   id="svg48"
   sodipodi:docname="3DNC LOGO ISO LINES-white-tb.svg"
   inkscape:version="1.2.1 (9c6d41e410, 2022-07-14)"
   xmlns:inkscape="http://www.inkscape.org/namespaces/inkscape"
   xmlns:sodipodi="http://sodipodi.sourceforge.net/DTD/sodipodi-0.dtd"
   xmlns="http://www.w3.org/2000/svg"
   xmlns:svg="http://www.w3.org/2000/svg">
  <defs
     id="defs52">
    <inkscape:path-effect
       effect="spiro"
       id="path-effect2604"
       is_visible="true"
       lpeversion="1" />
    <inkscape:path-effect
       effect="spiro"
       id="path-effect2600"
       is_visible="true"
       lpeversion="1" />
    <inkscape:path-effect
       effect="spiro"
       id="path-effect1805"
       is_visible="true"
       lpeversion="1" />
    <inkscape:path-effect
       effect="spiro"
       id="path-effect1801"
       is_visible="true"
       lpeversion="1" />
    <inkscape:path-effect
       effect="spiro"
       id="path-effect1797"
       is_visible="true"
       lpeversion="1" />
    <inkscape:path-effect
       effect="spiro"
       id="path-effect1793"
       is_visible="true"
       lpeversion="1" />
  </defs>
  <sodipodi:namedview
     id="namedview50"
     pagecolor="#9a9a9a"
     bordercolor="#000000"
     borderopacity="0.25"
     inkscape:showpageshadow="2"
     inkscape:pageopacity="0"
     inkscape:pagecheckerboard="0"
     inkscape:deskcolor="#868686"
     inkscape:document-units="pt"
     showgrid="false"
     inkscape:zoom="5.6568542"
     inkscape:cx="78.046911"
     inkscape:cy="92.277435"
     inkscape:window-width="2560"
     inkscape:window-height="1346"
     inkscape:window-x="-11"
     inkscape:window-y="-11"
     inkscape:window-maximized="1"
     inkscape:current-layer="svg48" />
  <path
     style="fill:#000000;stroke-width:0.75;stroke-linecap:round;paint-order:stroke fill markers;stop-color:#000000"
     d=""
     id="path496" />
  <path
     style="fill:#000000;stroke-width:0.75;stroke-linecap:round;paint-order:stroke fill markers;stop-color:#000000"
     d=""
     id="path498" />
  <path
     style="fill:#000000;stroke-width:0.75;stroke-linecap:round;paint-order:stroke fill markers;stop-color:#000000"
     d=""
     id="path642" />
  <path
     d="m 27.458256,34.015239 c 1.826834,1.187227 3.149026,3.087781 3.164781,5.98584 0.02347,5.170666 -3.525844,8.279645 -7.840081,9.238653"
     stroke="#000000"
     stroke-width="0.24"
     fill="none"
     id="path2"
     style="stroke-width:0.5;stroke-dasharray:none;stroke:#ffffff" />
  <path
     d="m 16.133279,24.659471 10.679027,0.587116"
     stroke="#000000"
     stroke-width="0.24"
     fill="none"
     id="path4"
     style="stroke-width:0.5;stroke-dasharray:none;stroke:#ffffff" />
  <path
     d="m 19.822729,39.920674 -9.190662,0.955353"
     stroke="#000000"
     stroke-width="0.24"
     fill="none"
     id="path6"
     style="stroke-width:0.5;stroke-dasharray:none;stroke:#ffffff" />
  <path
     d="m 76.580649,53.224227 12.78914,2.776396"
     stroke="#000000"
     stroke-width="0.24"
     fill="none"
     id="path8"
     style="stroke-width:0.5;stroke-dasharray:none;stroke:#ffffff" />
  <path
     d="m 68.109973,110.6077 -9.369521,-5.80269"
     stroke="#000000"
     stroke-width="0.24"
     fill="none"
     id="path10"
     style="stroke-width:0.5;stroke-dasharray:none;stroke:#ffffff" />
  <path
     d="m 102.62419,90.972816 -7.183091,0.007"
     stroke="#000000"
     stroke-width="0.24"
     fill="none"
     id="path12"
     style="stroke-width:0.5;stroke-dasharray:none;stroke:#ffffff" />
  <path
     d="m 59.167376,57.648593 -8.340663,0.494691"
     stroke="#000000"
     stroke-width="0.24"
     fill="none"
     id="path14"
     style="stroke-width:0.5;stroke-dasharray:none;stroke:#ffffff" />
  <path
     d="m 59.177528,10.819448 c 5.358362,2.021762 8.33181,7.409814 8.224369,15.881082 -0.0938,6.209998 -1.649227,13.846813 -8.010379,16.84623 l -0.495629,0.210026"
     stroke="#000000"
     stroke-width="0.24"
     fill="none"
     id="path16"
     style="stroke-width:0.5;stroke-dasharray:none;stroke:#ffffff" />
  <path
     d="m 12.6273,20.796395 9.072127,0.497859 C 21.994474,14.102946 25.317786,9.6822922 30.959492,9.1715522 l 1.391627,-0.05197 c 4.294908,0.07253 8.468001,3.0801948 8.465402,8.0580208 0.0041,6.627793 -5.809731,8.073127 -10.020018,8.118365 l -3.984197,-0.04938 0.06408,8.801301 5.122933,-0.276462 c 4.414776,-0.09194 10.555684,1.844596 10.538143,8.463683 -0.01056,6.689257 -5.320681,10.302998 -11.059597,10.604556 C 24.522652,53.201081 19.909527,48.155894 19.822729,39.920674 L 9.8198296,37.848509 1.4515066,38.681712"
     stroke="#000000"
     stroke-width="0.24"
     fill="none"
     id="path18"
     style="stroke-width:0.5;stroke-dasharray:none;stroke:#ffffff" />
  <path
     d="m 23.684395,60.386411 c 2.462227,0.656394 5.176776,0.879497 8.063166,0.700495 7.840324,-0.495585 14.524207,-3.453744 17.740313,-10.411261 1.095938,-2.352363 1.685365,-4.832318 1.702338,-8.180724 0.03232,-7.165107 -3.325334,-12.442493 -9.169905,-13.492788 4.863059,-1.009038 7.427124,-6.22145 7.459283,-12.123384 C 49.52523,6.0772492 42.184028,0.55920216 32.467981,0.26137216 c -1.735635,-0.04957 -3.392739,0.06285 -4.955882,0.338796 C 18.632359,2.1315182 12.854706,9.0946152 12.6273,20.796395 L 3.1857356,20.654996 C 3.3473296,10.160082 8.5621436,3.9160862 16.656089,2.5163962 l 10.85601,-1.91622804"
     stroke="#000000"
     stroke-width="0.24"
     fill="none"
     id="path20"
     style="stroke-width:0.5;stroke-dasharray:none;stroke:#ffffff" />
  <path
     d="m 67.747286,90.976146 c 2.387756,-2.11245 4.281346,-5.21607 5.334653,-9.162394 l 22.35916,9.165234 c -2.21591,8.20103 -7.44986,13.346274 -13.44816,14.190764 -2.73875,0.37807 -5.08509,-0.0679 -7.04088,-1.14215 -5.122044,-2.79573 -7.548132,-9.960424 -7.442233,-17.418804 0.0977,-10.618935 4.788593,-22.145221 15.497023,-22.853188 1.34469,-0.096 2.59338,0.01982 3.73975,0.328522 4.47691,1.210211 7.39375,5.336024 8.39378,11.388949 L 73.427569,68.48941"
     stroke="#000000"
     stroke-width="0.24"
     fill="none"
     id="path22"
     style="stroke-width:0.5;stroke-dasharray:none;stroke:#ffffff" />
  <path
     d="M 40.865329,2.1253702 51.415653,0.60444816 51.14043,56.008014 64.494473,55.259276 c 4.820017,-0.268746 9.703376,-0.695703 13.478456,-2.678935 8.65129,-4.536039 11.34683,-14.368387 11.6288,-25.008842 0.25744,-11.835243 -2.89963,-22.3795698 -13.38912,-25.4969708 -2.43973,-0.746837 -5.043917,-0.900613 -8.287147,-0.993711 L 51.415653,0.60444816"
     stroke="#000000"
     stroke-width="0.24"
     fill="none"
     id="path24"
     style="stroke-width:0.5;stroke-dasharray:none;stroke:#ffffff" />
  <path
     d="m 58.849274,47.919959 0.346282,-39.1377438 9.154232,0.15116 c 9.153011,0.172221 14.344241,6.6111278 14.106701,18.5148368 -0.15617,6.846413 -1.89107,15.255274 -8.77294,18.58768 -2.679633,1.270312 -6.741711,1.527282 -9.034614,1.627747 z"
     stroke="#000000"
     stroke-width="0.24"
     fill="none"
     id="path26"
     style="stroke-width:0.5;stroke-dasharray:none;stroke:#ffffff" />
  <path
     d="m 95.140379,75.473079 7.444831,-1.379061 C 101.58526,61.056612 94.428399,54.930267 83.042909,55.571068 66.923078,56.385834 58.888336,70.102862 58.833682,87.445646 c -0.195231,17.112624 7.5141,27.689404 22.797617,25.318124 10.87225,-1.67819 18.788831,-8.765 20.992891,-21.790954 l -23.029401,-9.066152 -6.51285,-0.09291"
     stroke="#000000"
     stroke-width="0.24"
     fill="none"
     id="path28"
     style="stroke-width:0.5;stroke-dasharray:none;stroke:#ffffff" />
  <path
     d="m 45.104527,56.4383 5.722186,1.704984 -0.215452,44.783016 -27.313136,-43.150152 -9.55655,0.566812 0.868248,61.73588 9.328599,-1.38986 -0.419209,-45.79522 26.951716,41.84224 8.172557,-1.21769 0.52389,-57.869717 -6.284895,-1.737227"
     stroke="#000000"
     stroke-width="0.24"
     fill="none"
     id="path30"
     style="stroke-width:0.5;stroke-dasharray:none;stroke:#ffffff" />
  <path
     d="M 23.298125,59.776148 8.5946366,53.983117 0.24994557,54.398054 13.741575,60.34296"
     stroke="#000000"
     stroke-width="0.24"
     fill="none"
     id="path32"
     style="stroke-width:0.5;stroke-dasharray:none;stroke:#ffffff" />
  <path
     d="m 8.3721106,53.994162 c -4.157874,-2.886607 -6.773548,-7.927489 -6.920604,-15.31245 l 9.1805604,2.194315 c 0.12262,8.014067 2.837452,13.527306 7.184263,16.741135"
     stroke="#000000"
     stroke-width="0.24"
     fill="none"
     id="path34"
     style="stroke-width:0.5;stroke-dasharray:none;stroke:#ffffff" />
  <path
     d="m 25.531857,11.430987 c 1.966842,1.221516 3.360011,3.267757 3.376903,5.969531 0.03874,5.971099 -5.285102,7.269917 -9.133775,7.306627 l -3.641706,-0.04767 0.09992,7.919936 10.643181,1.468481"
     stroke="#000000"
     stroke-width="0.24"
     fill="none"
     id="path36"
     style="stroke-width:0.5;stroke-dasharray:none;stroke:#ffffff" />
  <path
     d="m 3.1857606,20.655078 8.2632454,0.448966 10.250445,0.190291"
     stroke="#000000"
     stroke-width="0.24"
     fill="none"
     id="path38"
     style="stroke-width:0.5;stroke-dasharray:none;stroke:#ffffff;fill:#ffffff" />
  <path
     d="m 23.652236,89.429446 9.32388,14.169654 17.494813,13.1369"
     stroke="#000000"
     stroke-width="0.24"
     fill="none"
     id="path40"
     style="stroke-width:0.5;stroke-dasharray:none;stroke:#ffffff" />
  <path
     d="M 0.24994557,54.398054 1.3595916,107.56743 14.609823,122.07884"
     stroke="#000000"
     stroke-width="0.24"
     fill="none"
     id="path42"
     style="stroke-width:0.5;stroke-dasharray:none;stroke:#ffffff" />
  <path
     d="m 46.809383,54.79163 4.331047,1.216384"
     stroke="#000000"
     stroke-width="0.24"
     fill="none"
     id="path44"
     style="stroke-width:0.5;stroke-dasharray:none;stroke:#ffffff" />
  <path
     d="m 32.857224,61.00041 0.0605,13.973186"
     stroke="#000000"
     stroke-width="0.24"
     fill="none"
     id="path46"
     style="stroke-width:0.5;stroke-dasharray:none;stroke:#ffffff" />
  <path
     style="fill:#ffffff;stroke-width:0.750001;stroke-linecap:round;paint-order:stroke fill markers;stop-color:#000000;stroke:#ffffff"
     d="m 27.461215,60.856793 c -2.248809,-0.237056 -3.414146,-0.512908 -3.764662,-0.89115 -0.192135,-0.207332 -1.458446,-0.802337 -2.986456,-1.403253 -2.820536,-1.109225 -3.231277,-1.35021 -4.551195,-2.670229 -2.986752,-2.986974 -4.831031,-7.54535 -5.230299,-12.927366 -0.07413,-0.999255 -0.112356,-1.84233 -0.08495,-1.873499 0.04298,-0.04888 8.128196,-0.943255 8.666355,-0.958666 0.13338,-0.0038 0.196324,0.264757 0.196324,0.837692 0,1.275782 0.411442,3.373146 0.958107,4.884043 0.988159,2.731117 2.839272,4.88117 5.208033,6.049092 1.80821,0.891542 3.192164,1.154884 5.534742,1.053161 4.758588,-0.206633 8.519266,-2.412225 10.225338,-5.997038 0.287797,-0.604722 0.631514,-1.520764 0.763817,-2.035651 0.300818,-1.170707 0.313086,-3.960732 0.02222,-5.053199 -1.020499,-3.832876 -4.837419,-6.210955 -9.990491,-6.224434 -0.993397,-0.0026 -2.601286,0.04859 -3.573088,0.113748 l -1.766911,0.118474 -6.1e-4,-2.019816 c -3.13e-4,-1.110901 -0.04692,-3.033098 -0.103572,-4.27155 l -0.102999,-2.251731 1.949015,0.107645 c 5.339436,0.294897 9.454487,-1.177636 11.089868,-3.968413 1.411139,-2.408108 1.36572,-6.24851 -0.101248,-8.560708 -1.06075,-1.67193 -3.091665,-3.1105218 -5.135806,-3.6379308 -1.100695,-0.283991 -3.985653,-0.33107 -5.063205,-0.08263 -0.378525,0.08727 -0.713124,0.133782 -0.743553,0.103351 -0.09795,-0.09795 3.088465,-1.879726 5.435361,-3.039339 2.045052,-1.01047 5.687559,-2.53203 7.272208,-3.037771 0.570193,-0.181977 0.632928,-0.164565 1.460258,0.405281 2.745592,1.891104 4.720881,4.79948 5.683168,8.3677868 0.372208,1.380199 0.408322,1.782488 0.417642,4.652257 0.009,2.787064 -0.02995,3.29201 -0.345737,4.476512 -1.03179,3.870168 -3.379879,6.692863 -6.279796,7.549097 -0.367125,0.108398 -0.667499,0.253857 -0.667499,0.323241 0,0.06939 0.300374,0.202959 0.667499,0.29683 4.050045,1.035576 6.817354,4.052351 8.00574,8.727441 0.316026,1.24324 0.355065,1.766977 0.344517,4.622064 -0.01089,2.948299 -0.04624,3.34808 -0.419044,4.738748 -1.354273,5.051903 -4.407888,8.871723 -8.885892,11.115527 -3.651423,1.829626 -9.640423,2.832823 -14.103232,2.36238 z"
     id="path464" />
  <path
     style="fill:#ffffff;stroke-width:0.5;stroke-linecap:round;stroke-dasharray:none;paint-order:stroke fill markers;stop-color:#000000;stroke:#ffffff"
     d="m 13.682822,20.690772 -0.919104,-0.05715 0.109185,-1.444588 c 0.44787,-5.925618 2.258751,-10.4431108 5.495876,-13.7102138 2.489203,-2.512255 5.292817,-3.93612 9.288818,-4.71749004 1.913673,-0.374196 6.032192,-0.377078 8.06151,-0.0056 3.141607,0.57502504 7.059869,2.20360704 5.76057,2.39431804 -0.933856,0.137071 -6.34686,2.436936 -8.737458,3.712351 -1.584408,0.845303 -3.324785,1.851633 -3.455414,1.99801 -0.04326,0.04847 -0.325961,0.222176 -0.628235,0.38601 -1.369472,0.742264 -2.468191,1.4030298 -2.854762,1.7168448 -0.231258,0.187734 -1.468097,1.184771 -2.74853,2.215638 -1.280432,1.030867 -3.624761,3.168991 -5.209619,4.751385 -1.584858,1.582395 -2.963049,2.863717 -3.062647,2.847384 -0.0996,-0.01634 -0.594683,-0.05542 -1.10019,-0.08685 z"
     id="path466" />
  <path
     style="fill:#ffffff;stroke-width:0.750001;stroke-linecap:round;paint-order:stroke fill markers;stop-color:#000000;stroke:#ffffff"
     d="m 51.358381,44.185521 c 0.04371,-6.422041 0.122161,-18.797626 0.174331,-27.501301 l 0.09486,-15.82486284 1.512178,1.33e-4 c 3.196889,2.83e-4 17.45135,0.48000004 18.945704,0.63759604 8.733955,0.921088 14.148005,5.9371 16.337475,15.1363488 0.74856,3.145112 0.92599,5.020565 0.92243,9.749895 -0.004,4.719353 -0.18197,6.670291 -0.94801,10.36666 -2.01486,9.722344 -7.46362,15.769611 -15.69191,17.415589 -2.411113,0.482313 -4.928521,0.717894 -11.852312,1.109141 -3.842572,0.217135 -7.568732,0.438092 -8.280356,0.491013 l -1.293862,0.09622 z m 11.617659,3.715755 c 8.321985,-0.312289 11.421429,-1.255866 14.449409,-4.398888 2.53238,-2.628588 4.15429,-6.536859 4.88808,-11.778657 0.39503,-2.821913 0.35674,-7.750112 -0.0791,-10.186932 C 80.962309,14.425288 77.469459,10.390408 71.45722,9.0872092 70.374629,8.8525512 68.88667,8.7811072 62.331207,8.6490332 l -3.314832,-0.06678 -0.101678,13.3770518 c -0.05593,7.357379 -0.146905,16.264045 -0.202182,19.792588 l -0.100504,6.415534 1.004075,-0.08887 c 0.55224,-0.04888 2.064222,-0.128653 3.359954,-0.177277 z"
     id="path468" />
  <path
     style="fill:#ffffff;stroke-width:0.750001;stroke-linecap:round;paint-order:stroke fill markers;stop-color:#000000;stroke:#ffffff"
     d="m 73.700799,112.53995 c -4.983179,-1.05083 -8.454863,-3.58831 -11.075997,-8.09554 -1.643006,-2.82526 -2.875605,-6.943844 -3.336648,-11.148994 -0.255088,-2.32665 -0.205335,-9.379648 0.08267,-11.720056 1.256664,-10.211819 5.437142,-17.979386 11.929328,-22.165365 3.292317,-2.122789 6.756877,-3.237435 11.201947,-3.603979 8.19746,-0.675966 14.30853,2.377684 17.501771,8.745469 1.13539,2.264158 2.14854,6.081184 2.20773,8.317675 l 0.0291,1.100709 -3.454941,0.64328 -3.45494,0.643279 -0.42978,-1.710517 c -1.10169,-4.384451 -3.23781,-7.404351 -6.31674,-8.930132 -3.90285,-1.934085 -9.26234,-1.183623 -13.24706,1.85491 -4.039818,3.080563 -6.796161,8.792129 -7.752978,16.065385 -0.286365,2.176766 -0.239856,7.257142 0.08411,9.188632 1.413596,8.427764 5.543658,13.292444 11.624258,13.691894 6.0991,0.40066 11.44803,-3.22082 14.63137,-9.906134 0.45671,-0.95912 1.02048,-2.32697 1.25284,-3.03968 l 0.42248,-1.29583 h 3.35995 c 3.201741,0 3.359961,0.0141 3.359961,0.29982 0,0.16489 -0.23867,1.24279 -0.53038,2.39532 -2.686781,10.615534 -9.816941,17.141014 -20.486901,18.749514 -2.14964,0.32405 -5.87172,0.28505 -7.60119,-0.0797 z"
     id="path470" />
  <path
     style="fill:#000000;stroke-width:0.5;stroke-linecap:round;stroke-dasharray:none;paint-order:stroke fill markers;stop-color:#000000;stroke:#ffffff"
     d="M 37.054385,95.533666 C 29.644268,84.022353 23.557663,74.574554 23.528597,74.538561 c -0.02907,-0.036 -0.08673,-0.03155 -0.128131,0.0099 -0.04141,0.04142 -6.1e-4,7.457102 0.09064,16.479325 0.09126,9.022224 0.142804,16.709634 0.114548,17.083154 l -0.05138,0.67912 -1.570588,-1.29605 c -1.664857,-1.3739 -5.884718,-5.52108 -6.901695,-6.78289 L 14.475938,99.959166 14.194942,80.295642 C 14.040394,69.480703 13.94443,60.601628 13.981688,60.564367 c 0.03726,-0.03726 2.100318,-0.189548 4.584578,-0.338416 3.358866,-0.201278 4.561341,-0.225125 4.690438,-0.09302 0.09548,0.09771 6.27224,9.825709 13.726133,21.61779 14.870134,23.524589 13.639295,21.596419 13.727991,21.505579 0.03515,-0.036 0.115986,-10.152464 0.179642,-22.481034 l 0.115737,-22.415593 0.644918,-0.08091 c 1.170122,-0.1468 7.185417,-0.432574 7.272483,-0.345501 0.04692,0.04693 0.0068,8.093287 -0.08921,17.880801 -0.09599,9.78752 -0.220772,22.690193 -0.277289,28.672627 -0.05652,5.98242 -0.111908,10.87714 -0.123091,10.87714 -0.01118,0 -1.644168,0.24637 -3.628857,0.5475 -1.98469,0.30113 -3.759122,0.54852 -3.94318,0.54975 -0.273176,0.002 -2.809723,-3.84268 -13.807592,-20.927414 z"
     id="path472" />
  <path
     style="fill:#ffffff;stroke-width:0.5;stroke-linecap:round;stroke-dasharray:none;paint-order:stroke fill markers;stop-color:#000000;stroke:#ffffff"
     d="m 14.77671,120.19375 c -0.05007,-0.88548 -0.13538,-5.70952 -0.189583,-10.72007 l -0.09855,-9.11009 0.370793,0.31414 c 0.203937,0.17277 0.433897,0.42016 0.511024,0.54974 0.193126,0.32449 4.853484,5.03226 4.917848,4.96789 0.02852,-0.0285 0.353547,0.23801 0.722296,0.59228 0.600709,0.57712 1.618054,1.45471 2.332484,2.01206 0.229705,0.1792 0.272775,0.87376 0.370528,5.97511 0.06084,3.1748 0.07375,5.77235 0.02871,5.77235 -0.04505,0 -1.967225,0.28273 -4.271505,0.62828 -2.30428,0.34556 -4.282617,0.62828 -4.396304,0.62828 -0.151534,0 -0.231,-0.4297 -0.297734,-1.60997 z"
     id="path474" />
  <path
     style="fill:#ffffff;stroke-width:0.5;stroke-linecap:round;stroke-dasharray:none;paint-order:stroke fill markers;stop-color:#000000;stroke:#ffffff"
     d="m 14.930092,121.11656 c -0.0901,-0.4803 -0.427018,-20.39233 -0.34641,-20.47294 0.01882,-0.0188 1.099982,1.07671 2.402574,2.43453 1.302592,1.35782 3.254701,3.21092 4.338018,4.11801 1.083318,0.90708 2.019051,1.75526 2.079406,1.88485 0.06035,0.12958 0.146035,2.74746 0.190398,5.8175 l 0.08066,5.58191 -3.9867,0.58393 c -2.192686,0.32116 -4.137858,0.58356 -4.322604,0.58311 -0.256921,-6.1e-4 -0.359285,-0.12545 -0.435342,-0.5309 z"
     id="path476" />
  <path
     style="fill:#000000;stroke-width:0.5;stroke-linecap:round;stroke-dasharray:none;paint-order:stroke fill markers;stop-color:#000000;stroke:#ffffff"
     d="M 50.19436,115.48164 C 49.305673,114.29926 44.694848,107.2124 33.61359,89.996926 28.275343,81.7036 23.770502,74.776784 23.602832,74.604006 c -0.301801,-0.310996 -0.303728,-0.143133 -0.192413,16.76729 0.06184,9.394784 0.0575,17.081424 -0.0097,17.081424 -0.409268,0 -7.028357,-6.27587 -8.28303,-7.85353 L 14.555616,99.892376 14.372337,86.855516 C 14.271533,79.685243 14.175938,70.850018 14.159904,67.221686 l -0.02916,-6.596964 1.25647,-0.102984 c 2.768936,-0.226951 7.424157,-0.450505 7.632003,-0.366506 0.237618,0.09603 0.270263,0.147038 16.116577,25.18198 5.814468,9.186044 10.800787,17.031718 11.080709,17.434838 l 0.508945,0.73295 0.09578,-5.261864 c 0.05268,-2.89403 0.105688,-10.18034 0.117794,-16.191805 0.01211,-6.011463 0.06869,-13.794716 0.125741,-17.296111 l 0.103733,-6.366187 1.155408,-0.09768 c 0.635475,-0.05372 2.355708,-0.144866 3.82274,-0.202543 l 2.667331,-0.104869 9.14e-4,6.66079 c 0.0011,7.42354 -0.258623,35.827079 -0.410018,44.843639 l -0.09783,5.8263 -3.398179,0.49766 c -1.868999,0.2737 -3.554912,0.49681 -3.746475,0.49579 -0.235598,-0.001 -0.548839,-0.26869 -0.968092,-0.82648 z"
     id="path478" />
  <path
     style="fill:#ffffff;stroke-width:0.750001;stroke-linecap:round;paint-order:stroke fill markers;stop-color:#000000;stroke:#ffffff"
     d="M 50.111688,115.36665 C 49.158041,114.07111 44.474214,106.87481 33.247411,89.456106 27.988832,81.29727 23.598054,74.59242 23.490128,74.556445 c -0.156597,-0.0522 -0.173042,3.364142 -0.08142,16.915431 0.06314,9.339464 0.05971,16.980844 -0.0076,16.980844 -0.40955,0 -7.028022,-6.27503 -8.283358,-7.85353 L 14.555616,99.892376 14.372337,86.855516 C 14.271533,79.685243 14.175938,70.850018 14.159904,67.221686 l -0.02916,-6.596964 1.25647,-0.102984 c 2.753222,-0.225664 7.423763,-0.450738 7.632003,-0.367788 0.121516,0.0484 0.722664,0.880947 1.335882,1.850098 11.555113,18.262014 25.505115,40.249812 25.881542,40.794132 l 0.488807,0.70682 0.09535,-5.418934 c 0.05244,-2.98042 0.105545,-10.33132 0.11801,-16.335344 0.01247,-6.004027 0.06923,-13.716596 0.126158,-17.139049 l 0.103498,-6.222636 1.155428,-0.09768 c 0.635485,-0.05373 2.355726,-0.144868 3.822758,-0.202545 l 2.667332,-0.104869 7.91e-4,6.66079 c 9.14e-4,7.543342 -0.262209,36.425867 -0.409906,45.000707 l -0.09765,5.66922 -3.398227,0.49766 c -1.869025,0.27371 -3.557396,0.49682 -3.751936,0.4958 -0.249336,-0.001 -0.557798,-0.27912 -1.045352,-0.94147 z"
     id="path480" />
  <path
     style="fill:#ffffff;stroke-width:0.5;stroke-linecap:round;stroke-dasharray:none;paint-order:stroke fill markers;stop-color:#000000;stroke:#ffffff"
     d="m 23.474558,108.79881 c -3.267956,-2.56561 -6.236113,-5.42638 -8.91684,-8.59423 l -0.156342,-0.18476 -0.0046,-0.256044 c -0.0026,-0.14082 -0.0046,-0.3271 -0.0046,-0.41396 l -10e-6,-0.15792 h 0.03359 0.03359 l 0.0046,0.18222 c 0.0025,0.10022 0.0046,0.25875 0.0046,0.35229 4.2e-5,0.0935 0.002,0.18602 0.0043,0.20552 0.0041,0.0344 0.01362,0.0471 0.317556,0.424304 0.326819,0.40562 0.456808,0.56188 0.622324,0.74808 1.366553,1.53734 4.899393,4.98721 6.416759,6.26607 0.180214,0.15188 1.720616,1.42176 1.724646,1.42176 0.0021,0 0.0163,-0.16321 0.03153,-0.3627 l 0.02768,-0.3627 -9.14e-4,-1.47509 c -5e-4,-0.8113 -0.0044,-2.01705 -0.0088,-2.67946 -0.01521,-2.32525 -0.02792,-4.046724 -0.03234,-4.381884 l -0.0044,-0.33841 h 0.03484 0.03484 l 0.0036,0.0434 c 0.0044,0.0528 0.0899,9.644794 0.08661,9.712074 l -0.0023,0.0476 z"
     id="path482" />
  <path
     style="fill:#ffffff;stroke-width:0.5;stroke-linecap:round;stroke-dasharray:none;paint-order:stroke fill markers;stop-color:#000000;stroke:#ffffff"
     d="m 28.574759,9.3197532 c 7.5e-5,-0.0171 0.03164,-0.03831 0.177375,-0.119181 0.22861,-0.126853 0.428977,-0.249635 0.50215,-0.307711 0.123468,-0.09799 0.166908,-0.129092 0.291107,-0.208399 0.670321,-0.428035 2.438236,-1.423846 3.540278,-1.994126 2.004852,-1.037462 6.024852,-2.777988 7.74603,-3.353774 0.267976,-0.08965 0.444127,-0.139399 0.624121,-0.176281 0.221089,-0.0453 0.280691,-0.07904 0.280691,-0.158886 0,-0.05213 -0.02699,-0.09928 -0.09562,-0.16707 -0.269935,-0.266633 -1.120371,-0.674161 -2.255538,-1.080855 -1.402473,-0.502459 -3.021758,-0.92375704 -4.139352,-1.07695604 -1.54579,-0.211896 -3.974428,-0.262899 -5.900465,-0.123915 -0.233946,0.01688 -0.708007,0.05966 -0.744695,0.0672 -0.02541,0.0052 -0.02617,0.0041 -0.02617,-0.03654 v -0.04192 l 0.187958,-0.0215 c 0.879609,-0.100632 1.54614,-0.144558 2.462182,-0.162264 0.876339,-0.01694 1.823217,0.01502 2.68407,0.09058 3.033527,0.266282 5.732715,1.05845104 8.008452,2.35035504 0.112538,0.06389 0.218885,0.124864 0.236328,0.135508 l 0.03172,0.01935 -0.393357,0.130837 c -3.150161,1.047794 -6.262549,2.379494 -9.225024,3.947119 -1.267508,0.670714 -2.540408,1.403221 -3.749164,2.157504 -0.209869,0.130962 -0.243154,0.14889 -0.243077,0.130932 z"
     id="path484" />
  <path
     style="fill:#ffffff;stroke-width:0.5;stroke-linecap:round;stroke-dasharray:none;paint-order:stroke fill markers;stop-color:#000000;stroke:#ffffff"
     d="m 49.14055,15.421136 c -1.14e-4,-0.240849 -0.01549,-0.838687 -0.02869,-1.115938 -0.04087,-0.858094 -0.11976,-1.34573 -0.36506,-2.256747 -0.358037,-1.329687 -0.840612,-2.5498438 -1.445046,-3.6536768 -0.483809,-0.883547 -1.066741,-1.732602 -1.682622,-2.45078 -0.838788,-0.978112 -1.723217,-1.76006 -2.81673,-2.490348 -0.406053,-0.271177 -0.553612,-0.336916 -0.756592,-0.337071 -0.149544,-1.14e-4 -0.245539,0.02428 -0.709008,0.180158 -1.494668,0.502707 -4.420635,1.716876 -6.442926,2.673577 -2.154658,1.01932 -6.024184,3.151376 -6.024184,3.319243 0,0.0069 0.01224,0.01533 0.02721,0.01861 0.0616,0.01353 0.366383,-0.03116 0.675401,-0.09902 0.464039,-0.101911 1.045977,-0.155142 1.819366,-0.166423 l 0.309299,-0.0045 -0.404468,0.0176 c -0.532997,0.02319 -0.873949,0.06188 -1.394222,0.15821 -0.406308,0.07523 -0.939844,0.209746 -1.24124,0.312944 -0.03887,0.01331 -0.07434,0.02419 -0.07884,0.02419 -0.0045,0 -0.007,-0.04557 -0.0055,-0.101263 l 0.0027,-0.101264 0.08575,-0.05404 c 1.394367,-0.878668 3.016442,-1.802875 4.548966,-2.591858 0.342808,-0.176486 1.23394,-0.617908 1.589319,-0.787268 2.236353,-1.065764 4.445082,-1.963379 6.73319,-2.736333 0.458305,-0.154821 0.640074,-0.214149 0.656115,-0.214149 0.03838,0 0.689652,0.420498 1.052165,0.679343 1.494125,1.066849 2.733684,2.371703 3.699011,3.89386 0.421892,0.665251 0.819579,1.431418 1.12884,2.174769 0.687576,1.6526868 1.110888,3.5150238 1.248261,5.4916508 0.01037,0.149189 0.02107,0.302304 0.02379,0.340254 l 0.0049,0.069 H 49.24514 49.140576 l -9.5e-5,-0.192731 z"
     id="path486" />
  <path
     style="fill:#ffffff;stroke-width:0.5;stroke-linecap:round;stroke-dasharray:none;paint-order:stroke fill markers;stop-color:#000000;stroke:#ffffff"
     d="m 23.694891,108.96783 c -0.538623,-0.42379 -0.680268,-0.53644 -0.975481,-0.77581 -1.222744,-0.99146 -2.418031,-2.03911 -3.540278,-3.10299 -0.187678,-0.17792 -0.466327,-0.44562 -0.466327,-0.44801 0,-10e-4 0.0362,-0.002 0.08044,-0.002 h 0.08044 l 0.09707,0.094 c 1.10114,1.06619 2.106834,1.99769 2.76843,2.5642 0.187609,0.16064 1.800257,1.49099 1.812561,1.49526 0.007,0.002 0.01085,-0.0384 0.04597,-0.48679 l 0.01715,-0.21891 -0.0017,-1.72388 -0.0017,-1.72387 h 0.03934 0.03934 l 4.8e-5,0.10351 c 0,0.057 0.0053,0.70097 0.01171,1.43121 0.01711,1.94604 0.02252,2.66074 0.02076,2.74216 l -0.0016,0.0725 -0.02617,-0.0206 z"
     id="path488" />
  <path
     style="fill:#ffffff;stroke-width:0.5;stroke-linecap:round;stroke-dasharray:none;paint-order:stroke fill markers;stop-color:#000000;stroke:#ffffff"
     d="m 23.671098,108.94952 c -1.475963,-1.15851 -2.6486,-2.15296 -3.904299,-3.31102 -0.355391,-0.32776 -1.053994,-0.98884 -1.053994,-0.99739 0,-10e-4 0.03617,-0.002 0.08037,-0.002 h 0.08037 l 0.159013,0.15347 c 1.121387,1.08231 2.061394,1.95256 2.687582,2.48814 0.222308,0.19014 1.825291,1.51282 1.833421,1.51282 0.0049,0 0.01685,-0.13397 0.04887,-0.54965 l 0.01246,-0.16179 -0.0018,-1.7215 -0.0018,-1.72149 h 0.03936 0.03936 l 4.8e-5,0.10112 c 0,0.0556 0.0053,0.6986 0.01169,1.42883 0.01705,1.94174 0.02252,2.66535 0.02076,2.74709 l -0.0016,0.0726 -0.04996,-0.0392 z"
     id="path490" />
  <path
     style="fill:#ffffff;stroke-width:0.5;stroke-linecap:round;stroke-dasharray:none;paint-order:stroke fill markers;stop-color:#000000;stroke:#ffffff"
     d="m 23.625893,108.91403 c -0.697033,-0.54713 -1.233341,-0.98253 -1.839137,-1.49313 -0.993631,-0.83747 -2.029619,-1.77117 -2.954605,-2.66287 l -0.120955,-0.11661 0.08004,-10e-4 0.08004,-0.001 0.02522,0.0227 c 0.01387,0.0125 0.137217,0.13086 0.274098,0.26304 1.143277,1.10398 2.144248,2.02216 2.775575,2.54602 0.348521,0.28919 1.127881,0.93202 1.413256,1.16569 0.08113,0.0664 0.157768,0.12924 0.170305,0.13959 0.01253,0.0104 0.02387,0.0177 0.02519,0.0164 0.0034,-0.004 0.01766,-0.16521 0.04037,-0.45803 l 0.01956,-0.25221 -0.0018,-1.7215 -0.0018,-1.72149 h 0.03938 0.03938 l 4.8e-5,0.0964 c 0,0.053 0.0053,0.69598 0.01171,1.42883 0.01727,1.97102 0.02248,2.66072 0.02074,2.74709 l -0.0016,0.0774 -0.09517,-0.0747 z"
     id="path492" />
  <path
     style="fill:#ffffff;stroke-width:0.5;stroke-linecap:round;stroke-dasharray:none;paint-order:stroke fill markers;stop-color:#000000;stroke:#ffffff"
     d="m 14.708575,121.89312 c -8e-6,-0.13428 -0.141642,-10.2113 -0.147665,-10.5061 l -0.0062,-0.30218 h 0.02458 0.02458 l 5.9e-5,0.15942 c 1.67e-4,0.45358 0.05815,4.27696 0.09047,5.96514 0.03769,1.96883 0.05993,2.73145 0.09549,3.27405 0.05607,0.85545 0.129821,1.2553 0.242289,1.31346 0.02352,0.0122 0.04237,0.0129 0.12097,0.004 0.391298,-0.0426 2.18707,-0.30246 5.194159,-0.75147 1.577903,-0.2356 3.108065,-0.46044 3.30861,-0.48614 0.09148,-0.0117 0.09194,-0.0119 0.09858,-0.0412 0.02121,-0.0935 0.01873,-2.35934 -0.0042,-3.84596 -0.03109,-2.0149 -0.07829,-4.29553 -0.111447,-5.38458 l -0.0063,-0.207 h 0.05853 0.05853 l 4.9e-5,0.0928 c 2.8e-5,0.0511 0.01927,2.17644 0.04277,4.72311 0.02351,2.54667 0.04275,4.64582 0.04278,4.66478 4.8e-5,0.0332 -0.0015,0.0347 -0.04039,0.0409 -0.02224,0.004 -2.066114,0.30811 -4.54193,0.67676 -2.475816,0.36866 -4.511119,0.67193 -4.522896,0.67393 -0.02054,0.004 -0.02141,6e-4 -0.02141,-0.064 z"
     id="path494" />
  <path
     style="fill:#ffffff;stroke-width:0.5;stroke-linecap:round;stroke-dasharray:none;paint-order:stroke fill markers;stop-color:#000000;stroke:#ffffff"
     d="m 23.435709,108.76234 c -0.58563,-0.46292 -0.91678,-0.73162 -1.438994,-1.1676 -1.206657,-1.00741 -2.441999,-2.12445 -3.476627,-3.1437 -0.130857,-0.12892 -0.267392,-0.26195 -0.30341,-0.29563 -0.08161,-0.0763 -0.872326,-0.88253 -1.147937,-1.17043 -0.829947,-0.86696 -1.616775,-1.73967 -2.437713,-2.70379 l -0.223865,-0.26291 -0.0063,-0.302564 c -0.0035,-0.1664 -0.0063,-0.35111 -0.0063,-0.41045 v -0.10791 h 0.02855 c 0.0157,0 0.02911,0.001 0.02979,0.002 6.7e-4,0.001 0.0039,0.16973 0.0071,0.37426 l 0.0059,0.37189 0.02757,0.0417 c 0.0761,0.114994 0.719839,0.901184 0.94277,1.151394 0.208047,0.2335 0.559369,0.61004 0.564445,0.60497 0.0067,-0.007 -0.02882,-0.0473 -0.230977,-0.26421 -0.214779,-0.23044 -0.438828,-0.48104 -0.576933,-0.64532 -0.07595,-0.0903 -0.660653,-0.8138 -0.704359,-0.871504 -0.0043,-0.005 -0.02915,-1.51961 -0.05537,-3.36447 -0.02622,-1.84488 -0.04882,-3.42819 -0.05024,-3.5185 l -0.0026,-0.16419 4.559898,1e-5 4.559899,1e-5 0.0057,0.22128 c 0.0032,0.12171 0.01229,0.99436 0.02028,1.93922 0.008,0.94486 0.01875,2.20832 0.02391,2.80768 0.02306,2.678934 0.02829,3.343484 0.02831,3.595284 l 2.2e-5,0.26886 h -3.777639 c -2.139629,0 -3.779864,0.004 -3.782769,0.008 -0.01076,0.0174 0.90289,0.95597 1.766148,1.81432 1.45295,1.44469 2.982082,2.88733 3.900401,3.67977 0.222603,0.19209 1.847228,1.53286 1.864465,1.53871 0.01052,0.004 0.01489,-0.037 0.04392,-0.40734 l 0.0235,-0.2998 -1.23e-4,-1.38006 c -6.7e-5,-0.75902 -0.0042,-2.05247 -0.0092,-2.87431 -0.01576,-2.59601 -0.02815,-4.228694 -0.03363,-4.432824 l -0.0053,-0.19749 h 0.03236 0.03236 l 0.0065,0.46874 c 0.0087,0.630594 0.05705,5.890334 0.07811,8.499224 0.0036,0.44887 0.0041,0.81613 10e-4,0.81613 -0.003,0 -0.130272,-0.0986 -0.282726,-0.21911 z"
     id="path500" />
  <path
     style="fill:#ffffff;stroke-width:0.5;stroke-linecap:round;stroke-dasharray:none;paint-order:stroke fill markers;stop-color:#000000;stroke:#ffffff"
     d="m 23.481404,108.79907 c -1.264953,-0.99682 -2.56554,-2.10014 -3.57661,-3.03413 -0.814225,-0.75214 -1.223101,-1.14533 -1.969994,-1.8944 -1.160604,-1.16397 -2.189064,-2.28117 -3.303861,-3.58893 l -0.223759,-0.26248 -0.0063,-0.302994 c -0.0035,-0.16663 -0.0063,-0.35153 -0.0063,-0.41088 v -0.1079 h 0.02855 c 0.0157,0 0.02909,0.001 0.02975,0.002 6.7e-4,0.001 0.004,0.16984 0.0073,0.37451 l 0.0061,0.37212 0.02579,0.039 c 0.05181,0.0783 0.579079,0.730164 0.786845,0.972784 0.199183,0.23258 0.71432,0.79331 0.721877,0.78575 0.0058,-0.006 -0.02717,-0.0434 -0.235779,-0.26821 -0.216992,-0.23383 -0.449812,-0.49477 -0.576431,-0.64603 -0.07462,-0.0891 -0.665529,-0.82065 -0.700165,-0.866754 -0.0042,-0.005 -0.02909,-1.5196 -0.05531,-3.36447 -0.02622,-1.84487 -0.04882,-3.42819 -0.05024,-3.5185 l -0.0026,-0.16419 4.559899,2e-5 4.559899,1e-5 0.0058,0.22128 c 0.0054,0.20682 0.0143,1.17312 0.04868,5.27989 0.03484,4.161654 0.0523,7.005054 0.05203,8.475414 l -2.06e-4,1.15163 -0.02749,0.36009 c -0.01512,0.19804 -0.02941,0.362 -0.03175,0.36434 -0.0048,0.005 -1.56545,-1.28076 -1.819805,-1.4989 -0.312458,-0.26798 -0.895621,-0.79252 -1.265744,-1.13849 -0.912828,-0.85327 -1.451547,-1.37118 -2.444801,-2.35037 -0.524641,-0.51722 -1.435448,-1.44078 -1.833076,-1.85875 -0.09083,-0.0955 -0.167164,-0.17156 -0.16964,-0.16909 -0.0128,0.0128 0.688477,0.73418 1.582371,1.62773 1.613927,1.6133 3.311961,3.21577 4.211784,3.97475 0.294163,0.24812 1.728254,1.42916 1.74102,1.43381 0.0096,0.004 0.01414,-0.0396 0.04334,-0.40724 l 0.02382,-0.29981 -1.37e-4,-1.30867 c -1.85e-4,-1.74703 -0.03,-6.871634 -0.04287,-7.368994 l -0.0054,-0.20701 h 0.0324 0.0324 l 0.0064,0.45923 c 0.0035,0.25257 0.01257,1.150914 0.02015,1.996314 0.0076,0.8454 0.01822,1.98466 0.02363,2.53168 0.02662,2.69115 0.04219,4.79686 0.03549,4.79686 -0.0031,0 -0.109737,-0.0821 -0.237021,-0.18237 z"
     id="path502" />
  <path
     style="fill:#ffffff;stroke-width:0.5;stroke-linecap:round;stroke-dasharray:none;paint-order:stroke fill markers;stop-color:#000000;stroke:#ffffff"
     d="m 16.819199,102.76884 c -0.780078,-0.80331 -0.854624,-0.88244 -0.834523,-0.8858 0.01001,-0.002 0.01833,-0.0102 0.01849,-0.019 2.4e-4,-0.0133 0.0021,-0.0127 0.011,0.003 0.01566,0.0278 0.05962,0.0769 0.332299,0.37081 0.263929,0.28449 0.329358,0.35464 0.408714,0.43819 0.201664,0.21231 0.272736,0.28647 0.385614,0.40237 0.113012,0.11603 0.137823,0.14489 0.12457,0.14489 -0.0027,0 -0.203437,-0.20451 -0.446163,-0.45447 z"
     id="path504" />
  <path
     style="fill:#ffffff;stroke-width:0.5;stroke-linecap:round;stroke-dasharray:none;paint-order:stroke fill markers;stop-color:#000000;stroke:#ffffff"
     d="m 16.307433,102.23153 c -0.282154,-0.29352 -0.320949,-0.33762 -0.308206,-0.35037 0.0054,-0.005 0.0284,0.0139 0.05978,0.0504 0.02802,0.0326 0.153591,0.16982 0.279058,0.30499 0.125468,0.13516 0.226092,0.24778 0.22361,0.25026 -0.0025,0.002 -0.116891,-0.11239 -0.254242,-0.25527 z"
     id="path506" />
  <path
     style="fill:#ffffff;stroke-width:0.5;stroke-linecap:round;stroke-dasharray:none;paint-order:stroke fill markers;stop-color:#000000;stroke:#ffffff"
     d="m 14.603887,111.08484 -0.223633,-12.473074 9.454963,9.866114 v 3.24383 z"
     id="path634" />
  <path
     style="fill:#ffffff;stroke-width:0.5;stroke-linecap:round;stroke-dasharray:none;paint-order:stroke fill markers;stop-color:#000000;stroke:#ffffff"
     d="m 32.928641,8.3947742 c -0.190337,0.0571 -4.346441,1.156389 -4.346441,1.156389 l -0.963977,-1.936832 8.470022,-4.853972 5.066286,-0.368291 1.03821,0.572924 1.014128,1.87438 -10.202093,3.688648 z"
     id="path636" />
  <path
     style="fill:#ffffff;stroke-width:0.5;stroke-linecap:round;stroke-dasharray:none;paint-order:stroke fill markers;stop-color:#000000;stroke:#ffffff"
     d="m 18.336595,20.991559 c -1.664928,-0.09425 -3.040762,-0.184975 -3.057408,-0.201623 -0.01665,-0.01665 0.241539,-0.33009 0.573745,-0.696539 2.053099,-2.264722 4.279175,-4.39081 6.537864,-6.244204 0.86648,-0.711001 2.156106,-1.717336 2.20078,-1.717336 0.0184,0 -0.111342,0.187766 -0.288312,0.417257 -1.176073,1.525115 -1.984437,3.455579 -2.39539,5.720461 -0.15464,0.852265 -0.300391,2.108905 -0.301301,2.597762 -5.38e-4,0.287068 -0.0094,0.309069 -0.121706,0.302577 -0.06662,-0.0038 -1.483344,-0.08411 -3.148272,-0.178355 z"
     id="path638" />
  <path
     style="fill:#ffffff;stroke-width:0.5;stroke-linecap:round;stroke-dasharray:none;paint-order:stroke fill markers;stop-color:#000000;stroke:#ffffff"
     d="M 14.820402,20.817268 C 14.330654,20.789608 12.758942,20.7034 12.744338,20.7034 h -0.01289 l 3.6e-5,-0.06781 c 5.6e-5,-0.102809 0.01244,-0.465768 0.02628,-0.769736 0.04835,-1.062665 0.14705,-2.110591 0.292684,-3.107493 0.02114,-0.144665 0.05077,-0.337749 0.05498,-0.3581 l 0.0027,-0.01308 h 0.04706 c 0.03558,0 0.04655,0.0015 0.04499,0.006 -0.0038,0.01097 -0.05875,0.370191 -0.09006,0.588901 -0.108973,0.761347 -0.179442,1.419982 -0.247705,2.315154 -0.05144,0.674579 -0.101317,1.337274 -0.100695,1.337917 3.7e-4,3.82e-4 0.246922,0.016 0.547893,0.0347 0.725154,0.04506 1.230262,0.08148 1.390936,0.100271 0.09643,0.01128 0.09173,0.01138 0.117489,-0.0025 0.216598,-0.116629 1.452223,-1.26677 2.772985,-2.581143 0.174696,-0.173851 0.318721,-0.315001 0.320057,-0.313666 0.0013,0.0013 -0.09342,0.09976 -0.210565,0.218714 -0.873876,0.887391 -1.627686,1.697356 -2.429724,2.610731 -0.06493,0.07394 -0.120553,0.134158 -0.123614,0.133818 -0.003,-3.4e-4 -0.150103,-0.0088 -0.32676,-0.01876 z"
     id="path640" />
  <path
     style="fill:#ffffff;stroke-width:0.5;stroke-linecap:round;stroke-dasharray:none;paint-order:stroke fill markers;stop-color:#000000;stroke:#ffffff"
     d="m 20.968305,21.139062 c -0.572712,-0.03335 -0.533447,-0.0311 -1.710659,-0.09776 -2.080458,-0.117806 -2.975201,-0.172366 -3.633068,-0.221537 -0.270986,-0.02025 -0.342607,-0.02763 -0.342607,-0.03528 0,-0.02339 0.215461,-0.28786 0.442115,-0.542685 0.216844,-0.243795 0.624487,-0.686737 0.961272,-1.044514 0.817304,-0.868245 1.820503,-1.871374 2.683388,-2.683201 l 0.134893,-0.12691 h 1.428742 1.428743 l -0.02816,0.09399 c -0.229364,0.765491 -0.395557,1.518721 -0.522103,2.366311 -0.08622,0.577504 -0.163499,1.250584 -0.190408,1.658441 -0.0027,0.04188 -0.0061,0.08899 -0.0075,0.104693 -0.0013,0.0157 -0.0046,0.120636 -0.0073,0.233181 -0.0051,0.217558 -0.0082,0.253964 -0.02493,0.287907 -0.01271,0.02587 -0.02791,0.03401 -0.06715,0.03598 -0.01596,7.92e-4 -0.261349,-0.01207 -0.545309,-0.02861 z"
     id="path644" />
  <path
     style="fill:#ffffff;stroke-width:0.5;stroke-linecap:round;stroke-dasharray:none;paint-order:stroke fill markers;stop-color:#000000;stroke:#ffffff"
     d="m 20.934996,21.152789 c -0.344154,-0.01917 -1.292749,-0.07143 -2.107989,-0.116142 -0.815239,-0.04471 -1.615014,-0.08863 -1.777277,-0.0976 -0.162262,-0.009 -0.652619,-0.0359 -1.089682,-0.05985 -0.437062,-0.02395 -0.795387,-0.04423 -0.796278,-0.04506 -0.0043,-0.004 0.554483,-0.632176 0.888849,-0.999213 0.989298,-1.085963 2.078282,-2.194729 3.169536,-3.227112 0.113738,-0.107601 0.213686,-0.201396 0.222109,-0.208433 0.0115,-0.0096 0.01946,-0.01243 0.03196,-0.01131 l 0.01665,0.0015 -0.05813,0.05439 c -1.171454,1.096203 -2.485508,2.433616 -3.584229,3.647945 -0.31798,0.351438 -0.573404,0.660212 -0.573318,0.693065 1.3e-5,0.0051 0.0055,0.0088 0.01548,0.01054 0.07293,0.01296 0.742617,0.0601 1.630955,0.114814 0.614795,0.03786 0.882695,0.05341 2.422046,0.140613 0.600634,0.03402 1.336169,0.07569 1.634523,0.09259 0.338816,0.0192 0.548757,0.02928 0.559229,0.02685 0.02744,-0.0064 0.03835,-0.01458 0.04784,-0.03603 0.01397,-0.03158 0.01798,-0.07479 0.02101,-0.22632 0.0072,-0.361376 0.0383,-0.742289 0.107526,-1.318187 0.142141,-1.182479 0.332718,-2.139661 0.611604,-3.071803 0.0372,-0.124324 0.03968,-0.130866 0.04978,-0.130866 0.005,0 0.0091,0.0015 0.0091,0.0032 0,0.0018 -0.01272,0.04515 -0.02827,0.09637 -0.311173,1.025001 -0.539786,2.208559 -0.661423,3.424279 -0.04002,0.39999 -0.07371,0.856008 -0.08886,1.202785 l -0.0033,0.07495 -0.02188,-5.78e-4 c -0.01204,-3.19e-4 -0.303464,-0.01626 -0.647618,-0.03543 z"
     id="path646" />
  <path
     style="fill:#ffffff;stroke-width:0.5;stroke-linecap:round;stroke-dasharray:none;paint-order:stroke fill markers;stop-color:#000000;stroke:#ffffff"
     d="m 21.489354,21.180745 c -0.01308,-8.52e-4 -0.122292,-0.0069 -0.242681,-0.01343 -0.120388,-0.0065 -0.490832,-0.02683 -0.823209,-0.04514 -0.858524,-0.04729 -1.325119,-0.07299 -1.771329,-0.09757 -0.213952,-0.01179 -0.89649,-0.04927 -1.516753,-0.08328 -1.910129,-0.104751 -1.957714,-0.107464 -1.962105,-0.111855 -0.0013,-0.0013 0.0029,-0.0083 0.0095,-0.01547 0.0558,-0.06095 0.218154,-0.249102 0.218154,-0.252828 0,-0.0071 0.0055,-0.0085 0.02306,-0.0055 l 0.01593,0.0026 -0.05542,0.069 c -0.0959,0.119402 -0.120981,0.162049 -0.09896,0.168269 0.03146,0.0089 0.234415,0.02476 0.860087,0.06724 0.629916,0.04277 1.32704,0.08404 3.5379,0.209456 0.346771,0.01967 0.799655,0.04536 1.00641,0.0571 0.551424,0.03129 0.728138,0.04051 0.76327,0.03985 0.04431,-8.53e-4 -0.02973,-0.0052 -1.98619,-0.115983 -1.843017,-0.104389 -2.266019,-0.129227 -3.002574,-0.176308 -0.642968,-0.0411 -1.122001,-0.07629 -1.169387,-0.08591 -0.0072,-0.0015 -0.01308,-0.0044 -0.01308,-0.0066 0,-0.01684 0.129522,-0.181486 0.286407,-0.364069 0.248714,-0.289452 0.725919,-0.810104 1.240811,-1.35378 0.391536,-0.413424 0.630907,-0.659329 1.108804,-1.13907 0.530559,-0.532607 0.975913,-0.966536 1.45293,-1.415657 l 0.132311,-0.124572 h 1.429181 1.429182 l -0.0069,0.02261 c -0.303828,1.000301 -0.49525,1.945889 -0.643761,3.180065 -0.03874,0.321993 -0.07311,0.667779 -0.08819,0.887515 -0.004,0.05758 -0.0083,0.117543 -0.0097,0.133247 -0.0014,0.0157 -0.0047,0.120635 -0.0073,0.233181 -0.0051,0.217557 -0.0082,0.253964 -0.02493,0.287907 -0.01172,0.02385 -0.02333,0.03105 -0.06102,0.03779 l -0.02564,0.0046 0.0298,-0.0013 c 0.04593,-0.002 0.06807,-0.02435 0.0771,-0.07799 0.0037,-0.02221 0.0038,-0.02203 0.0044,0.01124 3.1e-4,0.01861 -7.91e-4,0.04377 -0.0024,0.05592 l -0.003,0.02208 -0.04337,-8.52e-4 c -0.02385,-4.72e-4 -0.05407,-0.0016 -0.06716,-0.0024 z"
     id="path648" />
  <path
     style="fill:#ffffff;stroke:#ffffff;stroke-width:0.5;stroke-linecap:round;stroke-dasharray:none;paint-order:stroke fill markers;stop-color:#000000"
     d="m 24.591576,12.131857 -5.557392,4.641827 c -0.07721,0.456149 -0.286535,0.88915 -0.596069,1.232984 -0.309534,0.343834 -0.718235,0.59735 -1.163793,0.721896 -0.394776,0.110351 -0.809353,0.120126 -1.218085,0.151171 -0.408732,0.03105 -0.826211,0.08722 -1.18842,0.27913 -0.181105,0.09596 -0.345946,0.225792 -0.469947,0.388979 -0.124002,0.163187 -0.20586,0.360631 -0.218961,0.565166 -0.0131,0.204536 0.04521,0.415379 0.173114,0.575529 0.127901,0.160149 0.326724,0.265157 0.531674,0.266587 0.176099,0.0012 0.347488,-0.07184 0.485578,-0.181131 0.138089,-0.109287 0.245429,-0.253026 0.334734,-0.404806 0.127215,-0.21621 0.220568,-0.450913 0.346897,-0.667643 0.126328,-0.216729 0.293327,-0.420816 0.520291,-0.52767 0.217949,-0.10261 0.468241,-0.105791 0.700745,-0.168818 0.116252,-0.03151 0.23016,-0.0793 0.322396,-0.156757 0.09224,-0.07746 0.161253,-0.187285 0.172171,-0.307237 0.0063,-0.0691 -0.0069,-0.139875 -0.03769,-0.202065 -0.03078,-0.06219 -0.07904,-0.115608 -0.137799,-0.152518"
     id="path1791"
     inkscape:path-effect="#path-effect1793"
     inkscape:original-d="m 24.591576,12.131857 -5.557392,4.641827 c -0.518082,0.688336 -1.276562,1.229929 -1.759862,1.95488 -0.388382,0.582572 -1.426505,2.547936 -2.390625,2.226562 -0.08194,-0.02731 0.760701,-0.546197 0.820312,-0.585937 0.440472,-0.293648 0.487537,-0.878937 0.867188,-1.195313 0.277622,-0.231352 1.088643,-0.312804 1.195312,-0.632812 0.0417,-0.12511 -0.110155,-0.240026 -0.175488,-0.354583" />
  <path
     style="fill:#ffffff;stroke:#ffffff;stroke-width:0.5;stroke-linecap:round;stroke-dasharray:none;paint-order:stroke fill markers;stop-color:#000000"
     d="m 17.911078,17.872815 0.733144,-0.72538"
     id="path1795"
     inkscape:path-effect="#path-effect1797"
     inkscape:original-d="m 17.911078,17.872815 c 0.334237,-0.210232 0.482603,-0.612205 0.733144,-0.72538" />
  <path
     style="fill:#ffffff;stroke:#ffffff;stroke-width:0.5;stroke-linecap:round;stroke-dasharray:none;paint-order:stroke fill markers;stop-color:#000000"
     d="m 28.65857,9.2464192 -0.696749,0.304744"
     id="path1799"
     inkscape:path-effect="#path-effect1801"
     inkscape:original-d="m 28.65857,9.2464192 c -0.221581,0.08528 -0.527228,0.195635 -0.696749,0.304744" />
  <path
     style="fill:#ffffff;stroke:#ffffff;stroke-width:0.5;stroke-linecap:round;stroke-dasharray:none;paint-order:stroke fill markers;stop-color:#000000"
     d="m 49.140576,15.613866 c -0.03809,0.05532 -0.05241,0.126449 -0.0387,0.192203 0.01042,0.04995 0.03588,0.09546 0.06423,0.13789 0.02835,0.04242 0.05998,0.08277 0.08493,0.127276 0.04643,0.08284 0.06822,0.178134 0.07114,0.273059 0.0029,0.09492 -0.01251,0.189708 -0.03688,0.281498 -0.04873,0.183582 -0.13284,0.356167 -0.183415,0.539249 -0.08527,0.308684 -0.07102,0.644037 0.04013,0.944375"
     id="path1803"
     inkscape:path-effect="#path-effect1805"
     inkscape:original-d="m 49.140576,15.613866 c -0.0129,0.06406 -0.04147,0.126909 -0.0387,0.192203 0.003,0.07208 0.132359,0.181183 0.149159,0.265166 0.06105,0.305221 -0.149159,0.732279 -0.149159,1.093806 0,0.28179 0.148972,0.776208 0.04013,0.944375" />
  <path
     style="fill:#ffffff;stroke:#ffffff;stroke-width:0.5;stroke-linecap:round;stroke-dasharray:none;paint-order:stroke fill markers;stop-color:#000000"
     d="m 50.860416,40.667557 c 0.135027,0.519256 0.134972,1.073026 -1.57e-4,1.592256 -0.06333,0.24335 -0.155816,0.47977 -0.19521,0.728121 -0.0197,0.124176 -0.02586,0.251235 -0.0079,0.375676 0.01795,0.12444 0.06065,0.246397 0.132851,0.349328 0.03979,0.05672 0.08792,0.107008 0.131575,0.160813 0.04365,0.0538 0.08349,0.112492 0.1028,0.179031 0.01454,0.0501 0.01707,0.103412 0.03517,0.152344 0.01777,0.04804 0.05042,0.09026 0.0917,0.120579 0.04128,0.03032 0.09096,0.04879 0.141907,0.05407 0.05094,0.0053 0.103038,-0.0025 0.150715,-0.0212 0.04768,-0.01871 0.09092,-0.04825 0.126658,-0.08494 0.07147,-0.07338 0.11148,-0.174276 0.119804,-0.276373 0.0083,-0.102097 -0.0136,-0.205234 -0.05333,-0.29965 -0.07946,-0.188832 -0.225461,-0.34009 -0.361199,-0.493541 -0.135738,-0.153451 -0.268193,-0.321829 -0.310001,-0.522389 -0.03848,-0.184599 0.0042,-0.374917 0.0234,-0.5625 0.0344,-0.335308 -0.0076,-0.678224 -0.121815,-0.99534"
     id="path2598"
     inkscape:path-effect="#path-effect2600"
     inkscape:original-d="m 50.860416,40.667557 c -0.08518,0.570586 -0.138952,1.048635 -1.57e-4,1.592256 0.108097,0.423382 -0.18498,1.281125 -0.07027,1.453125 0.07864,0.117954 0.161497,0.218378 0.234375,0.339844 0.02678,0.04469 -0.01695,0.152344 0.03517,0.152344 0.11565,0 -0.09012,-1.42525 -0.09375,-1.523438 -0.0067,-0.184289 -0.01583,-0.381814 0.0234,-0.5625 0.05438,-0.25007 0.382597,-1.000413 -0.121815,-0.99534" />
  <path
     style="fill:#000000;stroke:#ffffff;stroke-width:0.5;stroke-linecap:round;stroke-dasharray:none;paint-order:stroke fill markers;stop-color:#000000"
     d="m 50.668004,116.46108 c -0.258811,-0.28899 -0.4697,-0.62079 -0.62148,-0.97781 -0.05238,-0.1232 -0.09899,-0.25152 -0.182303,-0.35632 -0.09148,-0.11508 -0.223435,-0.19665 -0.298312,-0.32317 -0.07097,-0.11991 -0.08256,-0.26707 -0.149153,-0.38946 -0.06776,-0.12454 -0.186721,-0.21335 -0.26517,-0.33145 -0.09531,-0.14349 -0.125087,-0.32088 -0.207157,-0.47233 -0.0816,-0.15058 -0.210735,-0.26854 -0.323168,-0.39774 -0.156231,-0.17952 -0.282755,-0.38484 -0.372885,-0.6051"
     id="path2602"
     inkscape:path-effect="#path-effect2604"
     inkscape:original-d="m 50.668004,116.46108 c -0.159877,-0.35436 -0.407287,-0.65652 -0.62148,-0.97781 -0.07275,-0.10911 -0.114045,-0.271 -0.182303,-0.35632 -0.09012,-0.11265 -0.209114,-0.20424 -0.298312,-0.32317 -0.0872,-0.11625 -0.09263,-0.26226 -0.149153,-0.38946 -0.05737,-0.12916 -0.18237,-0.22105 -0.26517,-0.33145 -0.113767,-0.1517 -0.13353,-0.30667 -0.207157,-0.47233 -0.06637,-0.14934 -0.2316,-0.2604 -0.323168,-0.39774 -0.09993,-0.1499 -0.198787,-0.57544 -0.372885,-0.6051" />
</svg>
